<mxfile host="Electron" modified="2025-07-18T12:56:17.987Z" agent="Mozilla/5.0 (Windows NT 10.0; Win64; x64) AppleWebKit/537.36 (KHTML, like Gecko) draw.io/24.6.4 Chrome/124.0.6367.207 Electron/30.0.6 Safari/537.36" etag="4DM5BC7O6LZqCRRVmp2l" version="24.6.4" type="device">
  <diagram name="Page-1" id="4WKXbVPwhYz-1THPPJRX">
    <mxGraphModel dx="1125" dy="812" grid="0" gridSize="10" guides="1" tooltips="1" connect="1" arrows="1" fold="1" page="0" pageScale="1" pageWidth="4681" pageHeight="3300" math="0" shadow="0">
      <root>
        <mxCell id="0" />
        <mxCell id="1" parent="0" />
        <mxCell id="J9DhejEsRP8kxP1LZ3wM-49" value="DEVELOPMENT AND RELEASE" style="rounded=0;whiteSpace=wrap;html=1;sketch=1;hachureGap=4;jiggle=2;curveFitting=1;fontFamily=Verdana;verticalAlign=top;" vertex="1" parent="1">
          <mxGeometry x="-178.75" y="3976" width="725.75" height="183" as="geometry" />
        </mxCell>
        <mxCell id="hSn5F7qQhg8oLAxuPcVd-22" value="&lt;div style=&quot;background-color:#282c34;color:#8a8a8a&quot;&gt;&lt;pre style=&quot;font-family:&#39;JetBrains Mono&#39;,monospace;font-size:16.5pt;&quot;&gt;&lt;span style=&quot;color:#0080c0;font-weight:bold;&quot;&gt;PersonEx&lt;/span&gt;&lt;/pre&gt;&lt;/div&gt;" style="ellipse;whiteSpace=wrap;html=1;aspect=fixed;sketch=1;hachureGap=4;jiggle=2;curveFitting=1;fontFamily=Verdana;verticalAlign=top;" parent="1" vertex="1">
          <mxGeometry x="-58" y="1221" width="579" height="579" as="geometry" />
        </mxCell>
        <mxCell id="hSn5F7qQhg8oLAxuPcVd-20" value="&lt;font face=&quot;Verdana&quot;&gt;JVM&lt;/font&gt;" style="whiteSpace=wrap;html=1;sketch=1;hachureGap=4;jiggle=2;curveFitting=1;fontFamily=Architects Daughter;fontSource=https%3A%2F%2Ffonts.googleapis.com%2Fcss%3Ffamily%3DArchitects%2BDaughter;verticalAlign=top;" parent="1" vertex="1">
          <mxGeometry x="2" y="403" width="365" height="539" as="geometry" />
        </mxCell>
        <mxCell id="hSn5F7qQhg8oLAxuPcVd-1" value="REQUIREMENT" style="ellipse;whiteSpace=wrap;html=1;sketch=1;hachureGap=4;jiggle=2;curveFitting=1;fontFamily=Verdana;verticalAlign=top;" parent="1" vertex="1">
          <mxGeometry x="-242" y="-29" width="354" height="333" as="geometry" />
        </mxCell>
        <mxCell id="hSn5F7qQhg8oLAxuPcVd-2" value="&lt;font face=&quot;Verdana&quot;&gt;CODE&lt;/font&gt;" style="whiteSpace=wrap;html=1;sketch=1;hachureGap=4;jiggle=2;curveFitting=1;fontFamily=Architects Daughter;fontSource=https%3A%2F%2Ffonts.googleapis.com%2Fcss%3Ffamily%3DArchitects%2BDaughter;verticalAlign=top;" parent="1" vertex="1">
          <mxGeometry x="348" y="-6" width="184" height="318" as="geometry" />
        </mxCell>
        <mxCell id="hSn5F7qQhg8oLAxuPcVd-4" value="GPS" style="ellipse;whiteSpace=wrap;html=1;aspect=fixed;sketch=1;hachureGap=4;jiggle=2;curveFitting=1;fontFamily=Verdana;" parent="1" vertex="1">
          <mxGeometry x="-174" y="23" width="80" height="80" as="geometry" />
        </mxCell>
        <mxCell id="hSn5F7qQhg8oLAxuPcVd-5" value="YOL" style="ellipse;whiteSpace=wrap;html=1;aspect=fixed;sketch=1;hachureGap=4;jiggle=2;curveFitting=1;fontFamily=Verdana;" parent="1" vertex="1">
          <mxGeometry x="-64" y="23" width="80" height="80" as="geometry" />
        </mxCell>
        <mxCell id="hSn5F7qQhg8oLAxuPcVd-6" value="ARABA" style="ellipse;whiteSpace=wrap;html=1;aspect=fixed;sketch=1;hachureGap=4;jiggle=2;curveFitting=1;fontFamily=Verdana;" parent="1" vertex="1">
          <mxGeometry x="-183" y="118" width="80" height="80" as="geometry" />
        </mxCell>
        <mxCell id="hSn5F7qQhg8oLAxuPcVd-7" value="YON" style="ellipse;whiteSpace=wrap;html=1;aspect=fixed;sketch=1;hachureGap=4;jiggle=2;curveFitting=1;fontFamily=Verdana;" parent="1" vertex="1">
          <mxGeometry x="-66" y="128" width="80" height="80" as="geometry" />
        </mxCell>
        <mxCell id="hSn5F7qQhg8oLAxuPcVd-9" value="GPS" style="rounded=0;whiteSpace=wrap;html=1;sketch=1;hachureGap=4;jiggle=2;curveFitting=1;fontFamily=Verdana;" parent="1" vertex="1">
          <mxGeometry x="367" y="26" width="76" height="60" as="geometry" />
        </mxCell>
        <mxCell id="hSn5F7qQhg8oLAxuPcVd-10" value="YOL" style="rounded=0;whiteSpace=wrap;html=1;sketch=1;hachureGap=4;jiggle=2;curveFitting=1;fontFamily=Verdana;" parent="1" vertex="1">
          <mxGeometry x="456" y="23" width="76" height="60" as="geometry" />
        </mxCell>
        <mxCell id="hSn5F7qQhg8oLAxuPcVd-11" value="ARABA" style="rounded=0;whiteSpace=wrap;html=1;sketch=1;hachureGap=4;jiggle=2;curveFitting=1;fontFamily=Verdana;" parent="1" vertex="1">
          <mxGeometry x="362" y="107.5" width="76" height="60" as="geometry" />
        </mxCell>
        <mxCell id="hSn5F7qQhg8oLAxuPcVd-12" value="YON" style="rounded=0;whiteSpace=wrap;html=1;sketch=1;hachureGap=4;jiggle=2;curveFitting=1;fontFamily=Verdana;" parent="1" vertex="1">
          <mxGeometry x="449" y="107.5" width="76" height="60" as="geometry" />
        </mxCell>
        <mxCell id="hSn5F7qQhg8oLAxuPcVd-13" value="NAVIGASYON" style="rounded=0;whiteSpace=wrap;html=1;sketch=1;hachureGap=4;jiggle=2;curveFitting=1;fontFamily=Verdana;" parent="1" vertex="1">
          <mxGeometry x="362" y="187" width="151" height="60" as="geometry" />
        </mxCell>
        <mxCell id="hSn5F7qQhg8oLAxuPcVd-14" value="&lt;font face=&quot;Verdana&quot;&gt;CODE&lt;/font&gt;" style="whiteSpace=wrap;html=1;sketch=1;hachureGap=4;jiggle=2;curveFitting=1;fontFamily=Architects Daughter;fontSource=https%3A%2F%2Ffonts.googleapis.com%2Fcss%3Ffamily%3DArchitects%2BDaughter;verticalAlign=top;" parent="1" vertex="1">
          <mxGeometry x="106" y="466" width="184" height="318" as="geometry" />
        </mxCell>
        <mxCell id="hSn5F7qQhg8oLAxuPcVd-15" value="GPS" style="rounded=0;whiteSpace=wrap;html=1;sketch=1;hachureGap=4;jiggle=2;curveFitting=1;fontFamily=Verdana;" parent="1" vertex="1">
          <mxGeometry x="125" y="498" width="76" height="60" as="geometry" />
        </mxCell>
        <mxCell id="hSn5F7qQhg8oLAxuPcVd-16" value="YOL" style="rounded=0;whiteSpace=wrap;html=1;sketch=1;hachureGap=4;jiggle=2;curveFitting=1;fontFamily=Verdana;" parent="1" vertex="1">
          <mxGeometry x="214" y="495" width="76" height="60" as="geometry" />
        </mxCell>
        <mxCell id="hSn5F7qQhg8oLAxuPcVd-17" value="ARABA" style="rounded=0;whiteSpace=wrap;html=1;sketch=1;hachureGap=4;jiggle=2;curveFitting=1;fontFamily=Verdana;" parent="1" vertex="1">
          <mxGeometry x="120" y="579.5" width="76" height="60.5" as="geometry" />
        </mxCell>
        <mxCell id="hSn5F7qQhg8oLAxuPcVd-18" value="YON" style="rounded=0;whiteSpace=wrap;html=1;sketch=1;hachureGap=4;jiggle=2;curveFitting=1;fontFamily=Verdana;" parent="1" vertex="1">
          <mxGeometry x="207" y="579.5" width="76" height="60" as="geometry" />
        </mxCell>
        <mxCell id="hSn5F7qQhg8oLAxuPcVd-19" value="NAVIGASYON" style="rounded=0;whiteSpace=wrap;html=1;sketch=1;hachureGap=4;jiggle=2;curveFitting=1;fontFamily=Verdana;" parent="1" vertex="1">
          <mxGeometry x="120" y="659" width="151" height="60" as="geometry" />
        </mxCell>
        <mxCell id="hSn5F7qQhg8oLAxuPcVd-21" value="PERSON" style="ellipse;whiteSpace=wrap;html=1;aspect=fixed;sketch=1;hachureGap=4;jiggle=2;curveFitting=1;fontFamily=Verdana;verticalAlign=top;" parent="1" vertex="1">
          <mxGeometry x="16" y="1305" width="447" height="447" as="geometry" />
        </mxCell>
        <mxCell id="hSn5F7qQhg8oLAxuPcVd-23" value="Object&lt;div&gt;&lt;br&gt;&lt;/div&gt;&lt;div&gt;hashCode&lt;/div&gt;&lt;div&gt;equals&lt;/div&gt;&lt;div&gt;toString&lt;/div&gt;&lt;div&gt;&lt;br&gt;&lt;/div&gt;" style="ellipse;whiteSpace=wrap;html=1;aspect=fixed;sketch=1;hachureGap=4;jiggle=2;curveFitting=1;fontFamily=Verdana;verticalAlign=top;" parent="1" vertex="1">
          <mxGeometry x="120" y="1460" width="241" height="241" as="geometry" />
        </mxCell>
        <mxCell id="hSn5F7qQhg8oLAxuPcVd-24" value="&lt;font face=&quot;Verdana&quot;&gt;sayHello&lt;/font&gt;" style="rounded=0;whiteSpace=wrap;html=1;sketch=1;hachureGap=4;jiggle=2;curveFitting=1;fontFamily=Architects Daughter;fontSource=https%3A%2F%2Ffonts.googleapis.com%2Fcss%3Ffamily%3DArchitects%2BDaughter;" parent="1" vertex="1">
          <mxGeometry x="97" y="1378" width="72" height="41" as="geometry" />
        </mxCell>
        <mxCell id="hSn5F7qQhg8oLAxuPcVd-25" value="&lt;font face=&quot;Verdana&quot;&gt;newMethod1&lt;/font&gt;" style="rounded=0;whiteSpace=wrap;html=1;sketch=1;hachureGap=4;jiggle=2;curveFitting=1;fontFamily=Architects Daughter;fontSource=https%3A%2F%2Ffonts.googleapis.com%2Fcss%3Ffamily%3DArchitects%2BDaughter;" parent="1" vertex="1">
          <mxGeometry x="2" y="1334" width="86" height="41" as="geometry" />
        </mxCell>
        <mxCell id="hSn5F7qQhg8oLAxuPcVd-26" value="&lt;font face=&quot;Verdana&quot;&gt;sayHello&lt;/font&gt;" style="rounded=0;whiteSpace=wrap;html=1;sketch=1;hachureGap=4;jiggle=2;curveFitting=1;fontFamily=Architects Daughter;fontSource=https%3A%2F%2Ffonts.googleapis.com%2Fcss%3Ffamily%3DArchitects%2BDaughter;" parent="1" vertex="1">
          <mxGeometry x="76" y="1269" width="72" height="41" as="geometry" />
        </mxCell>
        <mxCell id="iX3Dwy6AKFpw80MfnItk-1" value="STACK" style="rounded=0;whiteSpace=wrap;html=1;sketch=1;hachureGap=4;jiggle=2;curveFitting=1;fontFamily=Verdana;verticalAlign=top;" parent="1" vertex="1">
          <mxGeometry x="-139" y="2189" width="170" height="303" as="geometry" />
        </mxCell>
        <mxCell id="iX3Dwy6AKFpw80MfnItk-2" value="HEAP" style="rounded=0;whiteSpace=wrap;html=1;sketch=1;hachureGap=4;jiggle=2;curveFitting=1;fontFamily=Verdana;verticalAlign=top;" parent="1" vertex="1">
          <mxGeometry x="132" y="2182" width="888" height="938" as="geometry" />
        </mxCell>
        <mxCell id="iX3Dwy6AKFpw80MfnItk-3" value="HEAP" style="rounded=0;whiteSpace=wrap;html=1;sketch=1;hachureGap=4;jiggle=2;curveFitting=1;fontFamily=Verdana;verticalAlign=top;" parent="1" vertex="1">
          <mxGeometry x="-156" y="3421" width="707" height="131" as="geometry" />
        </mxCell>
        <mxCell id="iX3Dwy6AKFpw80MfnItk-4" value="NEW" style="rounded=0;whiteSpace=wrap;html=1;sketch=1;hachureGap=4;jiggle=2;curveFitting=1;fontFamily=Verdana;verticalAlign=top;" parent="1" vertex="1">
          <mxGeometry x="-145" y="3442" width="233" height="89" as="geometry" />
        </mxCell>
        <mxCell id="iX3Dwy6AKFpw80MfnItk-5" value="s0" style="rounded=0;whiteSpace=wrap;html=1;sketch=1;hachureGap=4;jiggle=2;curveFitting=1;fontFamily=Verdana;verticalAlign=top;" parent="1" vertex="1">
          <mxGeometry x="99" y="3442" width="38" height="89" as="geometry" />
        </mxCell>
        <mxCell id="iX3Dwy6AKFpw80MfnItk-6" value="s1" style="rounded=0;whiteSpace=wrap;html=1;sketch=1;hachureGap=4;jiggle=2;curveFitting=1;fontFamily=Verdana;verticalAlign=top;" parent="1" vertex="1">
          <mxGeometry x="144" y="3443" width="38" height="89" as="geometry" />
        </mxCell>
        <mxCell id="iX3Dwy6AKFpw80MfnItk-7" value="OLD" style="rounded=0;whiteSpace=wrap;html=1;sketch=1;hachureGap=4;jiggle=2;curveFitting=1;fontFamily=Verdana;verticalAlign=top;" parent="1" vertex="1">
          <mxGeometry x="196" y="3445" width="342" height="89" as="geometry" />
        </mxCell>
        <mxCell id="iX3Dwy6AKFpw80MfnItk-8" value="Person" style="rounded=0;whiteSpace=wrap;html=1;sketch=1;hachureGap=4;jiggle=2;curveFitting=1;fontFamily=Verdana;verticalAlign=top;" parent="1" vertex="1">
          <mxGeometry x="158" y="2223" width="167" height="379" as="geometry" />
        </mxCell>
        <mxCell id="J9DhejEsRP8kxP1LZ3wM-3" style="edgeStyle=none;curved=1;rounded=0;sketch=1;hachureGap=4;jiggle=2;curveFitting=1;orthogonalLoop=1;jettySize=auto;html=1;exitX=1;exitY=0.5;exitDx=0;exitDy=0;entryX=0;entryY=0.5;entryDx=0;entryDy=0;fontFamily=Architects Daughter;fontSource=https%3A%2F%2Ffonts.googleapis.com%2Fcss%3Ffamily%3DArchitects%2BDaughter;fontSize=16;startSize=14;endArrow=open;endSize=14;sourcePerimeterSpacing=8;targetPerimeterSpacing=8;" edge="1" parent="1" source="iX3Dwy6AKFpw80MfnItk-9" target="iX3Dwy6AKFpw80MfnItk-18">
          <mxGeometry relative="1" as="geometry" />
        </mxCell>
        <mxCell id="iX3Dwy6AKFpw80MfnItk-9" value="name" style="rounded=0;whiteSpace=wrap;html=1;sketch=1;hachureGap=4;jiggle=2;curveFitting=1;fontFamily=Verdana;verticalAlign=top;" parent="1" vertex="1">
          <mxGeometry x="187" y="2265" width="97" height="27" as="geometry" />
        </mxCell>
        <mxCell id="J9DhejEsRP8kxP1LZ3wM-10" value="" style="edgeStyle=none;curved=1;rounded=0;sketch=1;hachureGap=4;jiggle=2;curveFitting=1;orthogonalLoop=1;jettySize=auto;html=1;fontFamily=Architects Daughter;fontSource=https%3A%2F%2Ffonts.googleapis.com%2Fcss%3Ffamily%3DArchitects%2BDaughter;fontSize=16;startSize=14;endArrow=open;endSize=14;sourcePerimeterSpacing=8;targetPerimeterSpacing=8;" edge="1" parent="1" source="iX3Dwy6AKFpw80MfnItk-10" target="iX3Dwy6AKFpw80MfnItk-23">
          <mxGeometry relative="1" as="geometry" />
        </mxCell>
        <mxCell id="iX3Dwy6AKFpw80MfnItk-10" value="surname" style="rounded=0;whiteSpace=wrap;html=1;sketch=1;hachureGap=4;jiggle=2;curveFitting=1;fontFamily=Verdana;verticalAlign=top;" parent="1" vertex="1">
          <mxGeometry x="187" y="2311" width="97" height="27" as="geometry" />
        </mxCell>
        <mxCell id="J9DhejEsRP8kxP1LZ3wM-8" style="edgeStyle=none;curved=1;rounded=0;sketch=1;hachureGap=4;jiggle=2;curveFitting=1;orthogonalLoop=1;jettySize=auto;html=1;exitX=1;exitY=0.5;exitDx=0;exitDy=0;entryX=0;entryY=0.5;entryDx=0;entryDy=0;fontFamily=Architects Daughter;fontSource=https%3A%2F%2Ffonts.googleapis.com%2Fcss%3Ffamily%3DArchitects%2BDaughter;fontSize=16;startSize=14;endArrow=open;endSize=14;sourcePerimeterSpacing=8;targetPerimeterSpacing=8;" edge="1" parent="1" source="iX3Dwy6AKFpw80MfnItk-11" target="iX3Dwy6AKFpw80MfnItk-25">
          <mxGeometry relative="1" as="geometry" />
        </mxCell>
        <mxCell id="iX3Dwy6AKFpw80MfnItk-11" value="age" style="rounded=0;whiteSpace=wrap;html=1;sketch=1;hachureGap=4;jiggle=2;curveFitting=1;fontFamily=Verdana;verticalAlign=top;" parent="1" vertex="1">
          <mxGeometry x="186" y="2359" width="97" height="27" as="geometry" />
        </mxCell>
        <mxCell id="J9DhejEsRP8kxP1LZ3wM-6" style="edgeStyle=none;curved=1;rounded=0;sketch=1;hachureGap=4;jiggle=2;curveFitting=1;orthogonalLoop=1;jettySize=auto;html=1;exitX=1;exitY=0.5;exitDx=0;exitDy=0;entryX=0;entryY=0.5;entryDx=0;entryDy=0;fontFamily=Architects Daughter;fontSource=https%3A%2F%2Ffonts.googleapis.com%2Fcss%3Ffamily%3DArchitects%2BDaughter;fontSize=16;startSize=14;endArrow=open;endSize=14;sourcePerimeterSpacing=8;targetPerimeterSpacing=8;" edge="1" parent="1" source="iX3Dwy6AKFpw80MfnItk-12" target="iX3Dwy6AKFpw80MfnItk-22">
          <mxGeometry relative="1" as="geometry" />
        </mxCell>
        <mxCell id="iX3Dwy6AKFpw80MfnItk-12" value="address" style="rounded=0;whiteSpace=wrap;html=1;sketch=1;hachureGap=4;jiggle=2;curveFitting=1;fontFamily=Verdana;verticalAlign=top;" parent="1" vertex="1">
          <mxGeometry x="187" y="2407" width="97" height="27" as="geometry" />
        </mxCell>
        <mxCell id="iX3Dwy6AKFpw80MfnItk-13" value="personLoc" style="rounded=0;whiteSpace=wrap;html=1;sketch=1;hachureGap=4;jiggle=2;curveFitting=1;fontFamily=Verdana;verticalAlign=top;" parent="1" vertex="1">
          <mxGeometry x="-127" y="2228" width="97" height="27" as="geometry" />
        </mxCell>
        <mxCell id="iX3Dwy6AKFpw80MfnItk-15" value="weight : 100" style="rounded=0;whiteSpace=wrap;html=1;sketch=1;hachureGap=4;jiggle=2;curveFitting=1;fontFamily=Verdana;verticalAlign=top;" parent="1" vertex="1">
          <mxGeometry x="183" y="2459" width="97" height="27" as="geometry" />
        </mxCell>
        <mxCell id="iX3Dwy6AKFpw80MfnItk-16" value="height : 200" style="rounded=0;whiteSpace=wrap;html=1;sketch=1;hachureGap=4;jiggle=2;curveFitting=1;fontFamily=Verdana;verticalAlign=top;" parent="1" vertex="1">
          <mxGeometry x="186" y="2502" width="97" height="27" as="geometry" />
        </mxCell>
        <mxCell id="iX3Dwy6AKFpw80MfnItk-17" value="stepCount : 1004" style="rounded=0;whiteSpace=wrap;html=1;sketch=1;hachureGap=4;jiggle=2;curveFitting=1;fontFamily=Verdana;verticalAlign=top;" parent="1" vertex="1">
          <mxGeometry x="186" y="2546" width="97" height="33" as="geometry" />
        </mxCell>
        <mxCell id="iX3Dwy6AKFpw80MfnItk-18" value="String" style="rounded=0;whiteSpace=wrap;html=1;sketch=1;hachureGap=4;jiggle=2;curveFitting=1;fontFamily=Verdana;verticalAlign=top;" parent="1" vertex="1">
          <mxGeometry x="384" y="2244" width="199" height="63" as="geometry" />
        </mxCell>
        <mxCell id="iX3Dwy6AKFpw80MfnItk-19" value="byte[]" style="rounded=0;whiteSpace=wrap;html=1;sketch=1;hachureGap=4;jiggle=2;curveFitting=1;fontFamily=Verdana;verticalAlign=top;" parent="1" vertex="1">
          <mxGeometry x="397" y="2272" width="97" height="27" as="geometry" />
        </mxCell>
        <mxCell id="iX3Dwy6AKFpw80MfnItk-22" value="String" style="rounded=0;whiteSpace=wrap;html=1;sketch=1;hachureGap=4;jiggle=2;curveFitting=1;fontFamily=Verdana;verticalAlign=top;" parent="1" vertex="1">
          <mxGeometry x="387.5" y="2323" width="199" height="63" as="geometry" />
        </mxCell>
        <mxCell id="iX3Dwy6AKFpw80MfnItk-23" value="byte[]" style="rounded=0;whiteSpace=wrap;html=1;sketch=1;hachureGap=4;jiggle=2;curveFitting=1;fontFamily=Verdana;verticalAlign=top;" parent="1" vertex="1">
          <mxGeometry x="400.5" y="2351" width="97" height="27" as="geometry" />
        </mxCell>
        <mxCell id="iX3Dwy6AKFpw80MfnItk-25" value="Integer" style="rounded=0;whiteSpace=wrap;html=1;sketch=1;hachureGap=4;jiggle=2;curveFitting=1;fontFamily=Verdana;verticalAlign=top;" parent="1" vertex="1">
          <mxGeometry x="384" y="2407" width="199" height="63" as="geometry" />
        </mxCell>
        <mxCell id="iX3Dwy6AKFpw80MfnItk-26" value="int" style="rounded=0;whiteSpace=wrap;html=1;sketch=1;hachureGap=4;jiggle=2;curveFitting=1;fontFamily=Verdana;verticalAlign=top;" parent="1" vertex="1">
          <mxGeometry x="397" y="2434" width="97" height="27" as="geometry" />
        </mxCell>
        <mxCell id="iX3Dwy6AKFpw80MfnItk-28" value="AccessTryout" style="rounded=0;whiteSpace=wrap;html=1;sketch=1;hachureGap=4;jiggle=2;curveFitting=1;fontFamily=Verdana;verticalAlign=top;" parent="1" vertex="1">
          <mxGeometry x="152" y="2611" width="167" height="94" as="geometry" />
        </mxCell>
        <mxCell id="iX3Dwy6AKFpw80MfnItk-53" style="edgeStyle=none;curved=1;rounded=0;sketch=1;hachureGap=4;jiggle=2;curveFitting=1;orthogonalLoop=1;jettySize=auto;html=1;exitX=1;exitY=0.5;exitDx=0;exitDy=0;entryX=0;entryY=0.5;entryDx=0;entryDy=0;fontFamily=Architects Daughter;fontSource=https%3A%2F%2Ffonts.googleapis.com%2Fcss%3Ffamily%3DArchitects%2BDaughter;fontSize=16;startSize=14;endArrow=open;endSize=14;sourcePerimeterSpacing=8;targetPerimeterSpacing=8;" parent="1" source="iX3Dwy6AKFpw80MfnItk-29" target="iX3Dwy6AKFpw80MfnItk-47" edge="1">
          <mxGeometry relative="1" as="geometry" />
        </mxCell>
        <mxCell id="iX3Dwy6AKFpw80MfnItk-29" value="field1" style="rounded=0;whiteSpace=wrap;html=1;sketch=1;hachureGap=4;jiggle=2;curveFitting=1;fontFamily=Verdana;verticalAlign=top;" parent="1" vertex="1">
          <mxGeometry x="165" y="2644" width="97" height="27" as="geometry" />
        </mxCell>
        <mxCell id="iX3Dwy6AKFpw80MfnItk-30" value="String - StaticField1" style="rounded=0;whiteSpace=wrap;html=1;sketch=1;hachureGap=4;jiggle=2;curveFitting=1;fontFamily=Verdana;verticalAlign=top;" parent="1" vertex="1">
          <mxGeometry x="580" y="2819" width="167" height="93" as="geometry" />
        </mxCell>
        <mxCell id="iX3Dwy6AKFpw80MfnItk-32" style="edgeStyle=none;curved=1;rounded=0;sketch=1;hachureGap=4;jiggle=2;curveFitting=1;orthogonalLoop=1;jettySize=auto;html=1;exitX=1;exitY=0.5;exitDx=0;exitDy=0;entryX=0;entryY=0.5;entryDx=0;entryDy=0;fontFamily=Architects Daughter;fontSource=https%3A%2F%2Ffonts.googleapis.com%2Fcss%3Ffamily%3DArchitects%2BDaughter;fontSize=16;startSize=14;endArrow=open;endSize=14;sourcePerimeterSpacing=8;targetPerimeterSpacing=8;" parent="1" source="iX3Dwy6AKFpw80MfnItk-31" target="iX3Dwy6AKFpw80MfnItk-28" edge="1">
          <mxGeometry relative="1" as="geometry" />
        </mxCell>
        <mxCell id="iX3Dwy6AKFpw80MfnItk-31" value="accesstryout1" style="rounded=0;whiteSpace=wrap;html=1;sketch=1;hachureGap=4;jiggle=2;curveFitting=1;fontFamily=Verdana;verticalAlign=top;" parent="1" vertex="1">
          <mxGeometry x="-127" y="2272" width="97" height="27" as="geometry" />
        </mxCell>
        <mxCell id="iX3Dwy6AKFpw80MfnItk-33" value="AccessTryout" style="rounded=0;whiteSpace=wrap;html=1;sketch=1;hachureGap=4;jiggle=2;curveFitting=1;fontFamily=Verdana;verticalAlign=top;" parent="1" vertex="1">
          <mxGeometry x="152" y="2719" width="167" height="94" as="geometry" />
        </mxCell>
        <mxCell id="iX3Dwy6AKFpw80MfnItk-34" value="field1" style="rounded=0;whiteSpace=wrap;html=1;sketch=1;hachureGap=4;jiggle=2;curveFitting=1;fontFamily=Verdana;verticalAlign=top;" parent="1" vertex="1">
          <mxGeometry x="165" y="2755" width="97" height="29" as="geometry" />
        </mxCell>
        <mxCell id="iX3Dwy6AKFpw80MfnItk-36" style="edgeStyle=none;curved=1;rounded=0;sketch=1;hachureGap=4;jiggle=2;curveFitting=1;orthogonalLoop=1;jettySize=auto;html=1;exitX=1;exitY=0.5;exitDx=0;exitDy=0;entryX=0;entryY=0.5;entryDx=0;entryDy=0;fontFamily=Architects Daughter;fontSource=https%3A%2F%2Ffonts.googleapis.com%2Fcss%3Ffamily%3DArchitects%2BDaughter;fontSize=16;startSize=14;endArrow=open;endSize=14;sourcePerimeterSpacing=8;targetPerimeterSpacing=8;" parent="1" source="iX3Dwy6AKFpw80MfnItk-35" target="iX3Dwy6AKFpw80MfnItk-33" edge="1">
          <mxGeometry relative="1" as="geometry" />
        </mxCell>
        <mxCell id="iX3Dwy6AKFpw80MfnItk-35" value="accesstryout2" style="rounded=0;whiteSpace=wrap;html=1;sketch=1;hachureGap=4;jiggle=2;curveFitting=1;fontFamily=Verdana;verticalAlign=top;" parent="1" vertex="1">
          <mxGeometry x="-127" y="2320" width="97" height="27" as="geometry" />
        </mxCell>
        <mxCell id="iX3Dwy6AKFpw80MfnItk-37" value="byte[]" style="rounded=0;whiteSpace=wrap;html=1;sketch=1;hachureGap=4;jiggle=2;curveFitting=1;fontFamily=Verdana;verticalAlign=top;" parent="1" vertex="1">
          <mxGeometry x="597" y="2860" width="97" height="27" as="geometry" />
        </mxCell>
        <mxCell id="iX3Dwy6AKFpw80MfnItk-38" value="String" style="rounded=0;whiteSpace=wrap;html=1;sketch=1;hachureGap=4;jiggle=2;curveFitting=1;fontFamily=Verdana;verticalAlign=top;" parent="1" vertex="1">
          <mxGeometry x="362" y="2615" width="199" height="76" as="geometry" />
        </mxCell>
        <mxCell id="iX3Dwy6AKFpw80MfnItk-39" value="byte[]" style="rounded=0;whiteSpace=wrap;html=1;sketch=1;hachureGap=4;jiggle=2;curveFitting=1;fontFamily=Verdana;verticalAlign=top;" parent="1" vertex="1">
          <mxGeometry x="371" y="2653" width="97" height="27" as="geometry" />
        </mxCell>
        <mxCell id="iX3Dwy6AKFpw80MfnItk-41" value="deneme" style="rounded=0;whiteSpace=wrap;html=1;sketch=1;hachureGap=4;jiggle=2;curveFitting=1;fontFamily=Verdana;verticalAlign=top;" parent="1" vertex="1">
          <mxGeometry x="456" y="2653" width="90" height="27" as="geometry" />
        </mxCell>
        <mxCell id="iX3Dwy6AKFpw80MfnItk-42" value="String" style="rounded=0;whiteSpace=wrap;html=1;sketch=1;hachureGap=4;jiggle=2;curveFitting=1;fontFamily=Verdana;verticalAlign=top;" parent="1" vertex="1">
          <mxGeometry x="369" y="2719" width="199" height="63" as="geometry" />
        </mxCell>
        <mxCell id="iX3Dwy6AKFpw80MfnItk-43" value="byte[]" style="rounded=0;whiteSpace=wrap;html=1;sketch=1;hachureGap=4;jiggle=2;curveFitting=1;fontFamily=Verdana;verticalAlign=top;" parent="1" vertex="1">
          <mxGeometry x="382" y="2747" width="97" height="27" as="geometry" />
        </mxCell>
        <mxCell id="iX3Dwy6AKFpw80MfnItk-44" value="test" style="rounded=0;whiteSpace=wrap;html=1;sketch=1;hachureGap=4;jiggle=2;curveFitting=1;fontFamily=Verdana;verticalAlign=top;" parent="1" vertex="1">
          <mxGeometry x="463" y="2747" width="90" height="27" as="geometry" />
        </mxCell>
        <mxCell id="iX3Dwy6AKFpw80MfnItk-45" style="edgeStyle=none;curved=1;rounded=0;sketch=1;hachureGap=4;jiggle=2;curveFitting=1;orthogonalLoop=1;jettySize=auto;html=1;exitX=1;exitY=0.5;exitDx=0;exitDy=0;entryX=0.005;entryY=0.619;entryDx=0;entryDy=0;entryPerimeter=0;fontFamily=Architects Daughter;fontSource=https%3A%2F%2Ffonts.googleapis.com%2Fcss%3Ffamily%3DArchitects%2BDaughter;fontSize=16;startSize=14;endArrow=open;endSize=14;sourcePerimeterSpacing=8;targetPerimeterSpacing=8;" parent="1" source="iX3Dwy6AKFpw80MfnItk-34" target="iX3Dwy6AKFpw80MfnItk-42" edge="1">
          <mxGeometry relative="1" as="geometry" />
        </mxCell>
        <mxCell id="iX3Dwy6AKFpw80MfnItk-46" value="2" style="rounded=0;whiteSpace=wrap;html=1;sketch=1;hachureGap=4;jiggle=2;curveFitting=1;fontFamily=Verdana;verticalAlign=top;" parent="1" vertex="1">
          <mxGeometry x="680" y="2860" width="39" height="27" as="geometry" />
        </mxCell>
        <mxCell id="iX3Dwy6AKFpw80MfnItk-47" value="String" style="rounded=0;whiteSpace=wrap;html=1;sketch=1;hachureGap=4;jiggle=2;curveFitting=1;fontFamily=Verdana;verticalAlign=top;" parent="1" vertex="1">
          <mxGeometry x="361" y="2533" width="199" height="63" as="geometry" />
        </mxCell>
        <mxCell id="iX3Dwy6AKFpw80MfnItk-48" value="byte[]" style="rounded=0;whiteSpace=wrap;html=1;sketch=1;hachureGap=4;jiggle=2;curveFitting=1;fontFamily=Verdana;verticalAlign=top;" parent="1" vertex="1">
          <mxGeometry x="374" y="2561" width="97" height="27" as="geometry" />
        </mxCell>
        <mxCell id="iX3Dwy6AKFpw80MfnItk-49" value="deneme" style="rounded=0;whiteSpace=wrap;html=1;sketch=1;hachureGap=4;jiggle=2;curveFitting=1;fontFamily=Verdana;verticalAlign=top;" parent="1" vertex="1">
          <mxGeometry x="455" y="2561" width="90" height="27" as="geometry" />
        </mxCell>
        <mxCell id="iX3Dwy6AKFpw80MfnItk-52" value="0" style="rounded=0;whiteSpace=wrap;html=1;sketch=1;hachureGap=4;jiggle=2;curveFitting=1;fontFamily=Verdana;verticalAlign=top;" parent="1" vertex="1">
          <mxGeometry x="497.5" y="2617" width="37" height="27" as="geometry" />
        </mxCell>
        <mxCell id="iX3Dwy6AKFpw80MfnItk-54" value="1" style="rounded=0;whiteSpace=wrap;html=1;sketch=1;hachureGap=4;jiggle=2;curveFitting=1;fontFamily=Verdana;verticalAlign=top;" parent="1" vertex="1">
          <mxGeometry x="504" y="2533" width="37" height="27" as="geometry" />
        </mxCell>
        <mxCell id="iX3Dwy6AKFpw80MfnItk-55" value="3" style="rounded=0;whiteSpace=wrap;html=1;sketch=1;hachureGap=4;jiggle=2;curveFitting=1;fontFamily=Verdana;verticalAlign=top;" parent="1" vertex="1">
          <mxGeometry x="280" y="2232" width="37" height="27" as="geometry" />
        </mxCell>
        <mxCell id="iX3Dwy6AKFpw80MfnItk-56" value="personLoc2" style="rounded=0;whiteSpace=wrap;html=1;sketch=1;hachureGap=4;jiggle=2;curveFitting=1;fontFamily=Verdana;verticalAlign=top;" parent="1" vertex="1">
          <mxGeometry x="-127" y="2364" width="97" height="27" as="geometry" />
        </mxCell>
        <mxCell id="iX3Dwy6AKFpw80MfnItk-57" style="edgeStyle=none;curved=1;rounded=0;sketch=1;hachureGap=4;jiggle=2;curveFitting=1;orthogonalLoop=1;jettySize=auto;html=1;exitX=1;exitY=0.5;exitDx=0;exitDy=0;entryX=0.017;entryY=0.109;entryDx=0;entryDy=0;entryPerimeter=0;fontFamily=Architects Daughter;fontSource=https%3A%2F%2Ffonts.googleapis.com%2Fcss%3Ffamily%3DArchitects%2BDaughter;fontSize=16;startSize=14;endArrow=open;endSize=14;sourcePerimeterSpacing=8;targetPerimeterSpacing=8;" parent="1" source="iX3Dwy6AKFpw80MfnItk-56" target="iX3Dwy6AKFpw80MfnItk-8" edge="1">
          <mxGeometry relative="1" as="geometry" />
        </mxCell>
        <mxCell id="iX3Dwy6AKFpw80MfnItk-58" value="personLoc2" style="rounded=0;whiteSpace=wrap;html=1;sketch=1;hachureGap=4;jiggle=2;curveFitting=1;fontFamily=Verdana;verticalAlign=top;" parent="1" vertex="1">
          <mxGeometry x="-127" y="2413" width="97" height="27" as="geometry" />
        </mxCell>
        <mxCell id="iX3Dwy6AKFpw80MfnItk-59" style="edgeStyle=none;curved=1;rounded=0;sketch=1;hachureGap=4;jiggle=2;curveFitting=1;orthogonalLoop=1;jettySize=auto;html=1;exitX=1;exitY=0.5;exitDx=0;exitDy=0;entryX=0.017;entryY=0.164;entryDx=0;entryDy=0;entryPerimeter=0;fontFamily=Architects Daughter;fontSource=https%3A%2F%2Ffonts.googleapis.com%2Fcss%3Ffamily%3DArchitects%2BDaughter;fontSize=16;startSize=14;endArrow=open;endSize=14;sourcePerimeterSpacing=8;targetPerimeterSpacing=8;" parent="1" source="iX3Dwy6AKFpw80MfnItk-58" target="iX3Dwy6AKFpw80MfnItk-8" edge="1">
          <mxGeometry relative="1" as="geometry" />
        </mxCell>
        <mxCell id="iX3Dwy6AKFpw80MfnItk-60" value="1" style="rounded=0;whiteSpace=wrap;html=1;sketch=1;hachureGap=4;jiggle=2;curveFitting=1;fontFamily=Verdana;verticalAlign=top;fillColor=#60a917;fontColor=#ffffff;strokeColor=#2D7600;" parent="1" vertex="1">
          <mxGeometry x="-136" y="3468" width="37" height="27" as="geometry" />
        </mxCell>
        <mxCell id="iX3Dwy6AKFpw80MfnItk-61" value="2&lt;span style=&quot;color: rgba(0, 0, 0, 0); font-family: monospace; font-size: 0px; text-align: start; text-wrap: nowrap;&quot;&gt;%3CmxGraphModel%3E%3Croot%3E%3CmxCell%20id%3D%220%22%2F%3E%3CmxCell%20id%3D%221%22%20parent%3D%220%22%2F%3E%3CmxCell%20id%3D%222%22%20value%3D%221%22%20style%3D%22rounded%3D0%3BwhiteSpace%3Dwrap%3Bhtml%3D1%3Bsketch%3D1%3BhachureGap%3D4%3Bjiggle%3D2%3BcurveFitting%3D1%3BfontFamily%3DVerdana%3BverticalAlign%3Dtop%3B%22%20vertex%3D%221%22%20parent%3D%221%22%3E%3CmxGeometry%20x%3D%22-136%22%20y%3D%223468%22%20width%3D%2237%22%20height%3D%2227%22%20as%3D%22geometry%22%2F%3E%3C%2FmxCell%3E%3C%2Froot%3E%3C%2FmxGraphModel%3E&lt;/span&gt;" style="rounded=0;whiteSpace=wrap;html=1;sketch=1;hachureGap=4;jiggle=2;curveFitting=1;fontFamily=Verdana;verticalAlign=top;fillColor=#60a917;fontColor=#ffffff;strokeColor=#2D7600;" parent="1" vertex="1">
          <mxGeometry x="-87" y="3468" width="37" height="27" as="geometry" />
        </mxCell>
        <mxCell id="iX3Dwy6AKFpw80MfnItk-62" value="3" style="rounded=0;whiteSpace=wrap;html=1;sketch=1;hachureGap=4;jiggle=2;curveFitting=1;fontFamily=Verdana;verticalAlign=top;fillColor=#d80073;fontColor=#ffffff;strokeColor=#A50040;" parent="1" vertex="1">
          <mxGeometry x="-40" y="3468" width="37" height="27" as="geometry" />
        </mxCell>
        <mxCell id="iX3Dwy6AKFpw80MfnItk-63" value="4" style="rounded=0;whiteSpace=wrap;html=1;sketch=1;hachureGap=4;jiggle=2;curveFitting=1;fontFamily=Verdana;verticalAlign=top;fillColor=#d80073;fontColor=#ffffff;strokeColor=#A50040;" parent="1" vertex="1">
          <mxGeometry x="2" y="3468" width="37" height="27" as="geometry" />
        </mxCell>
        <mxCell id="iX3Dwy6AKFpw80MfnItk-64" value="5" style="rounded=0;whiteSpace=wrap;html=1;sketch=1;hachureGap=4;jiggle=2;curveFitting=1;fontFamily=Verdana;verticalAlign=top;fillColor=#d80073;fontColor=#ffffff;strokeColor=#A50040;" parent="1" vertex="1">
          <mxGeometry x="46" y="3470" width="37" height="27" as="geometry" />
        </mxCell>
        <mxCell id="iX3Dwy6AKFpw80MfnItk-65" value="HEAP" style="rounded=0;whiteSpace=wrap;html=1;sketch=1;hachureGap=4;jiggle=2;curveFitting=1;fontFamily=Verdana;verticalAlign=top;" parent="1" vertex="1">
          <mxGeometry x="-161" y="3622" width="707" height="131" as="geometry" />
        </mxCell>
        <mxCell id="iX3Dwy6AKFpw80MfnItk-66" value="NEW" style="rounded=0;whiteSpace=wrap;html=1;sketch=1;hachureGap=4;jiggle=2;curveFitting=1;fontFamily=Verdana;verticalAlign=top;" parent="1" vertex="1">
          <mxGeometry x="-150" y="3643" width="233" height="89" as="geometry" />
        </mxCell>
        <mxCell id="iX3Dwy6AKFpw80MfnItk-67" value="s0" style="rounded=0;whiteSpace=wrap;html=1;sketch=1;hachureGap=4;jiggle=2;curveFitting=1;fontFamily=Verdana;verticalAlign=top;" parent="1" vertex="1">
          <mxGeometry x="94" y="3643" width="38" height="89" as="geometry" />
        </mxCell>
        <mxCell id="iX3Dwy6AKFpw80MfnItk-68" value="s1" style="rounded=0;whiteSpace=wrap;html=1;sketch=1;hachureGap=4;jiggle=2;curveFitting=1;fontFamily=Verdana;verticalAlign=top;" parent="1" vertex="1">
          <mxGeometry x="139" y="3644" width="38" height="89" as="geometry" />
        </mxCell>
        <mxCell id="iX3Dwy6AKFpw80MfnItk-69" value="OLD" style="rounded=0;whiteSpace=wrap;html=1;sketch=1;hachureGap=4;jiggle=2;curveFitting=1;fontFamily=Verdana;verticalAlign=top;" parent="1" vertex="1">
          <mxGeometry x="191" y="3646" width="342" height="89" as="geometry" />
        </mxCell>
        <mxCell id="iX3Dwy6AKFpw80MfnItk-70" value="1" style="rounded=0;whiteSpace=wrap;html=1;sketch=1;hachureGap=4;jiggle=2;curveFitting=1;fontFamily=Verdana;verticalAlign=top;fillColor=#60a917;fontColor=#ffffff;strokeColor=#2D7600;" parent="1" vertex="1">
          <mxGeometry x="95" y="3667" width="37" height="27" as="geometry" />
        </mxCell>
        <mxCell id="iX3Dwy6AKFpw80MfnItk-71" value="2&lt;span style=&quot;color: rgba(0, 0, 0, 0); font-family: monospace; font-size: 0px; text-align: start; text-wrap: nowrap;&quot;&gt;%3CmxGraphModel%3E%3Croot%3E%3CmxCell%20id%3D%220%22%2F%3E%3CmxCell%20id%3D%221%22%20parent%3D%220%22%2F%3E%3CmxCell%20id%3D%222%22%20value%3D%221%22%20style%3D%22rounded%3D0%3BwhiteSpace%3Dwrap%3Bhtml%3D1%3Bsketch%3D1%3BhachureGap%3D4%3Bjiggle%3D2%3BcurveFitting%3D1%3BfontFamily%3DVerdana%3BverticalAlign%3Dtop%3B%22%20vertex%3D%221%22%20parent%3D%221%22%3E%3CmxGeometry%20x%3D%22-136%22%20y%3D%223468%22%20width%3D%2237%22%20height%3D%2227%22%20as%3D%22geometry%22%2F%3E%3C%2FmxCell%3E%3C%2Froot%3E%3C%2FmxGraphModel%3E&lt;/span&gt;" style="rounded=0;whiteSpace=wrap;html=1;sketch=1;hachureGap=4;jiggle=2;curveFitting=1;fontFamily=Verdana;verticalAlign=top;fillColor=#d80073;fontColor=#ffffff;strokeColor=#A50040;" parent="1" vertex="1">
          <mxGeometry x="97" y="3700" width="37" height="27" as="geometry" />
        </mxCell>
        <mxCell id="iX3Dwy6AKFpw80MfnItk-75" value="6" style="rounded=0;whiteSpace=wrap;html=1;sketch=1;hachureGap=4;jiggle=2;curveFitting=1;fontFamily=Verdana;verticalAlign=top;fillColor=#60a917;fontColor=#ffffff;strokeColor=#2D7600;" parent="1" vertex="1">
          <mxGeometry x="-143" y="3678" width="37" height="27" as="geometry" />
        </mxCell>
        <mxCell id="iX3Dwy6AKFpw80MfnItk-76" value="7" style="rounded=0;whiteSpace=wrap;html=1;sketch=1;hachureGap=4;jiggle=2;curveFitting=1;fontFamily=Verdana;verticalAlign=top;fillColor=#d80073;fontColor=#ffffff;strokeColor=#A50040;" parent="1" vertex="1">
          <mxGeometry x="-94" y="3678" width="37" height="27" as="geometry" />
        </mxCell>
        <mxCell id="iX3Dwy6AKFpw80MfnItk-77" value="8" style="rounded=0;whiteSpace=wrap;html=1;sketch=1;hachureGap=4;jiggle=2;curveFitting=1;fontFamily=Verdana;verticalAlign=top;fillColor=#60a917;fontColor=#ffffff;strokeColor=#2D7600;" parent="1" vertex="1">
          <mxGeometry x="-47" y="3678" width="37" height="27" as="geometry" />
        </mxCell>
        <mxCell id="iX3Dwy6AKFpw80MfnItk-78" value="9" style="rounded=0;whiteSpace=wrap;html=1;sketch=1;hachureGap=4;jiggle=2;curveFitting=1;fontFamily=Verdana;verticalAlign=top;fillColor=#d80073;fontColor=#ffffff;strokeColor=#A50040;" parent="1" vertex="1">
          <mxGeometry x="-5" y="3678" width="37" height="27" as="geometry" />
        </mxCell>
        <mxCell id="iX3Dwy6AKFpw80MfnItk-79" value="10" style="rounded=0;whiteSpace=wrap;html=1;sketch=1;hachureGap=4;jiggle=2;curveFitting=1;fontFamily=Verdana;verticalAlign=top;fillColor=#60a917;fontColor=#ffffff;strokeColor=#2D7600;" parent="1" vertex="1">
          <mxGeometry x="39" y="3680" width="37" height="27" as="geometry" />
        </mxCell>
        <mxCell id="iX3Dwy6AKFpw80MfnItk-81" value="HEAP" style="rounded=0;whiteSpace=wrap;html=1;sketch=1;hachureGap=4;jiggle=2;curveFitting=1;fontFamily=Verdana;verticalAlign=top;" parent="1" vertex="1">
          <mxGeometry x="-166" y="3828" width="707" height="131" as="geometry" />
        </mxCell>
        <mxCell id="iX3Dwy6AKFpw80MfnItk-82" value="NEW" style="rounded=0;whiteSpace=wrap;html=1;sketch=1;hachureGap=4;jiggle=2;curveFitting=1;fontFamily=Verdana;verticalAlign=top;" parent="1" vertex="1">
          <mxGeometry x="-155" y="3849" width="233" height="89" as="geometry" />
        </mxCell>
        <mxCell id="iX3Dwy6AKFpw80MfnItk-83" value="s0" style="rounded=0;whiteSpace=wrap;html=1;sketch=1;hachureGap=4;jiggle=2;curveFitting=1;fontFamily=Verdana;verticalAlign=top;" parent="1" vertex="1">
          <mxGeometry x="89" y="3849" width="38" height="89" as="geometry" />
        </mxCell>
        <mxCell id="iX3Dwy6AKFpw80MfnItk-84" value="s1" style="rounded=0;whiteSpace=wrap;html=1;sketch=1;hachureGap=4;jiggle=2;curveFitting=1;fontFamily=Verdana;verticalAlign=top;" parent="1" vertex="1">
          <mxGeometry x="134" y="3850" width="38" height="89" as="geometry" />
        </mxCell>
        <mxCell id="iX3Dwy6AKFpw80MfnItk-85" value="OLD" style="rounded=0;whiteSpace=wrap;html=1;sketch=1;hachureGap=4;jiggle=2;curveFitting=1;fontFamily=Verdana;verticalAlign=top;" parent="1" vertex="1">
          <mxGeometry x="186" y="3852" width="342" height="89" as="geometry" />
        </mxCell>
        <mxCell id="iX3Dwy6AKFpw80MfnItk-86" value="1" style="rounded=0;whiteSpace=wrap;html=1;sketch=1;hachureGap=4;jiggle=2;curveFitting=1;fontFamily=Verdana;verticalAlign=top;fillColor=#60a917;fontColor=#ffffff;strokeColor=#2D7600;" parent="1" vertex="1">
          <mxGeometry x="201" y="3872" width="37" height="27" as="geometry" />
        </mxCell>
        <mxCell id="iX3Dwy6AKFpw80MfnItk-88" value="6" style="rounded=0;whiteSpace=wrap;html=1;sketch=1;hachureGap=4;jiggle=2;curveFitting=1;fontFamily=Verdana;verticalAlign=top;fillColor=#60a917;fontColor=#ffffff;strokeColor=#2D7600;" parent="1" vertex="1">
          <mxGeometry x="249" y="3872" width="37" height="27" as="geometry" />
        </mxCell>
        <mxCell id="iX3Dwy6AKFpw80MfnItk-92" value="10" style="rounded=0;whiteSpace=wrap;html=1;sketch=1;hachureGap=4;jiggle=2;curveFitting=1;fontFamily=Verdana;verticalAlign=top;fillColor=#60a917;fontColor=#ffffff;strokeColor=#2D7600;" parent="1" vertex="1">
          <mxGeometry x="297" y="3872" width="37" height="27" as="geometry" />
        </mxCell>
        <mxCell id="iX3Dwy6AKFpw80MfnItk-97" value="15" style="rounded=0;whiteSpace=wrap;html=1;sketch=1;hachureGap=4;jiggle=2;curveFitting=1;fontFamily=Verdana;verticalAlign=top;fillColor=#60a917;fontColor=#ffffff;strokeColor=#2D7600;" parent="1" vertex="1">
          <mxGeometry x="90" y="3877" width="37" height="27" as="geometry" />
        </mxCell>
        <mxCell id="iX3Dwy6AKFpw80MfnItk-104" value="" style="edgeStyle=none;curved=1;rounded=0;sketch=1;hachureGap=4;jiggle=2;curveFitting=1;orthogonalLoop=1;jettySize=auto;html=1;fontFamily=Architects Daughter;fontSource=https%3A%2F%2Ffonts.googleapis.com%2Fcss%3Ffamily%3DArchitects%2BDaughter;fontSize=16;startSize=14;endArrow=open;endSize=14;sourcePerimeterSpacing=8;targetPerimeterSpacing=8;" parent="1" source="iX3Dwy6AKFpw80MfnItk-102" target="iX3Dwy6AKFpw80MfnItk-103" edge="1">
          <mxGeometry relative="1" as="geometry" />
        </mxCell>
        <mxCell id="iX3Dwy6AKFpw80MfnItk-102" value="METHOD&lt;div&gt;&lt;br&gt;&lt;/div&gt;&lt;div&gt;JAVA BYTE&lt;/div&gt;" style="rounded=0;whiteSpace=wrap;html=1;sketch=1;hachureGap=4;jiggle=2;curveFitting=1;fontFamily=Verdana;verticalAlign=top;" parent="1" vertex="1">
          <mxGeometry x="-136" y="4188" width="127.5" height="89" as="geometry" />
        </mxCell>
        <mxCell id="iX3Dwy6AKFpw80MfnItk-103" value="METHOD&lt;div&gt;&lt;br&gt;&lt;/div&gt;&lt;div&gt;MACHINE CODE&amp;nbsp;&lt;/div&gt;" style="rounded=0;whiteSpace=wrap;html=1;sketch=1;hachureGap=4;jiggle=2;curveFitting=1;fontFamily=Verdana;verticalAlign=top;" parent="1" vertex="1">
          <mxGeometry x="111.5" y="4188" width="127.5" height="89" as="geometry" />
        </mxCell>
        <mxCell id="iX3Dwy6AKFpw80MfnItk-105" value="METHOD&lt;div&gt;&lt;br&gt;&lt;/div&gt;&lt;div&gt;MACHINE CODE&amp;nbsp;&lt;/div&gt;&lt;div&gt;&lt;br&gt;&lt;/div&gt;&lt;div&gt;C1&lt;/div&gt;" style="rounded=0;whiteSpace=wrap;html=1;sketch=1;hachureGap=4;jiggle=2;curveFitting=1;fontFamily=Verdana;verticalAlign=top;" parent="1" vertex="1">
          <mxGeometry x="6.5" y="4285" width="127.5" height="89" as="geometry" />
        </mxCell>
        <mxCell id="iX3Dwy6AKFpw80MfnItk-106" value="METHOD&lt;div&gt;&lt;br&gt;&lt;/div&gt;&lt;div&gt;MACHINE CODE&amp;nbsp;&lt;/div&gt;&lt;div&gt;&lt;br&gt;&lt;/div&gt;&lt;div&gt;C2&lt;/div&gt;" style="rounded=0;whiteSpace=wrap;html=1;sketch=1;hachureGap=4;jiggle=2;curveFitting=1;fontFamily=Verdana;verticalAlign=top;" parent="1" vertex="1">
          <mxGeometry x="-0.5" y="4413" width="127.5" height="89" as="geometry" />
        </mxCell>
        <mxCell id="iX3Dwy6AKFpw80MfnItk-107" value="METHOD&lt;div&gt;&lt;br&gt;&lt;/div&gt;&lt;div&gt;MACHINE CODE&amp;nbsp;&lt;/div&gt;&lt;div&gt;&lt;br&gt;&lt;/div&gt;&lt;div&gt;C3&lt;/div&gt;" style="rounded=0;whiteSpace=wrap;html=1;sketch=1;hachureGap=4;jiggle=2;curveFitting=1;fontFamily=Verdana;verticalAlign=top;" parent="1" vertex="1">
          <mxGeometry x="2" y="4541" width="127.5" height="89" as="geometry" />
        </mxCell>
        <mxCell id="iX3Dwy6AKFpw80MfnItk-108" value="HEAP" style="rounded=0;whiteSpace=wrap;html=1;sketch=1;hachureGap=4;jiggle=2;curveFitting=1;fontFamily=Verdana;verticalAlign=top;" parent="1" vertex="1">
          <mxGeometry x="-166" y="4730" width="458" height="237" as="geometry" />
        </mxCell>
        <mxCell id="iX3Dwy6AKFpw80MfnItk-109" value="S0" style="rounded=0;whiteSpace=wrap;html=1;sketch=1;hachureGap=4;jiggle=2;curveFitting=1;fontFamily=Verdana;verticalAlign=top;" parent="1" vertex="1">
          <mxGeometry x="-155" y="4751" width="85" height="50" as="geometry" />
        </mxCell>
        <mxCell id="iX3Dwy6AKFpw80MfnItk-117" value="" style="rounded=0;whiteSpace=wrap;html=1;sketch=1;hachureGap=4;jiggle=2;curveFitting=1;fontFamily=Verdana;verticalAlign=top;" parent="1" vertex="1">
          <mxGeometry x="-47" y="4753" width="85" height="50" as="geometry" />
        </mxCell>
        <mxCell id="iX3Dwy6AKFpw80MfnItk-118" value="NEW" style="rounded=0;whiteSpace=wrap;html=1;sketch=1;hachureGap=4;jiggle=2;curveFitting=1;fontFamily=Verdana;verticalAlign=top;" parent="1" vertex="1">
          <mxGeometry x="59" y="4753" width="85" height="50" as="geometry" />
        </mxCell>
        <mxCell id="iX3Dwy6AKFpw80MfnItk-119" value="" style="rounded=0;whiteSpace=wrap;html=1;sketch=1;hachureGap=4;jiggle=2;curveFitting=1;fontFamily=Verdana;verticalAlign=top;" parent="1" vertex="1">
          <mxGeometry x="165" y="4757" width="85" height="50" as="geometry" />
        </mxCell>
        <mxCell id="iX3Dwy6AKFpw80MfnItk-120" value="" style="rounded=0;whiteSpace=wrap;html=1;sketch=1;hachureGap=4;jiggle=2;curveFitting=1;fontFamily=Verdana;verticalAlign=top;" parent="1" vertex="1">
          <mxGeometry x="-156" y="4816" width="85" height="50" as="geometry" />
        </mxCell>
        <mxCell id="iX3Dwy6AKFpw80MfnItk-121" value="S0" style="rounded=0;whiteSpace=wrap;html=1;sketch=1;hachureGap=4;jiggle=2;curveFitting=1;fontFamily=Verdana;verticalAlign=top;" parent="1" vertex="1">
          <mxGeometry x="-48" y="4818" width="85" height="50" as="geometry" />
        </mxCell>
        <mxCell id="iX3Dwy6AKFpw80MfnItk-122" value="" style="rounded=0;whiteSpace=wrap;html=1;sketch=1;hachureGap=4;jiggle=2;curveFitting=1;fontFamily=Verdana;verticalAlign=top;" parent="1" vertex="1">
          <mxGeometry x="58" y="4818" width="85" height="50" as="geometry" />
        </mxCell>
        <mxCell id="iX3Dwy6AKFpw80MfnItk-123" value="" style="rounded=0;whiteSpace=wrap;html=1;sketch=1;hachureGap=4;jiggle=2;curveFitting=1;fontFamily=Verdana;verticalAlign=top;" parent="1" vertex="1">
          <mxGeometry x="164" y="4822" width="85" height="50" as="geometry" />
        </mxCell>
        <mxCell id="iX3Dwy6AKFpw80MfnItk-124" value="" style="rounded=0;whiteSpace=wrap;html=1;sketch=1;hachureGap=4;jiggle=2;curveFitting=1;fontFamily=Verdana;verticalAlign=top;" parent="1" vertex="1">
          <mxGeometry x="-157.5" y="4890" width="85" height="50" as="geometry" />
        </mxCell>
        <mxCell id="iX3Dwy6AKFpw80MfnItk-125" value="" style="rounded=0;whiteSpace=wrap;html=1;sketch=1;hachureGap=4;jiggle=2;curveFitting=1;fontFamily=Verdana;verticalAlign=top;" parent="1" vertex="1">
          <mxGeometry x="-49.5" y="4892" width="85" height="50" as="geometry" />
        </mxCell>
        <mxCell id="iX3Dwy6AKFpw80MfnItk-126" value="" style="rounded=0;whiteSpace=wrap;html=1;sketch=1;hachureGap=4;jiggle=2;curveFitting=1;fontFamily=Verdana;verticalAlign=top;" parent="1" vertex="1">
          <mxGeometry x="56.5" y="4892" width="85" height="50" as="geometry" />
        </mxCell>
        <mxCell id="iX3Dwy6AKFpw80MfnItk-127" value="OLD" style="rounded=0;whiteSpace=wrap;html=1;sketch=1;hachureGap=4;jiggle=2;curveFitting=1;fontFamily=Verdana;verticalAlign=top;" parent="1" vertex="1">
          <mxGeometry x="162.5" y="4896" width="85" height="50" as="geometry" />
        </mxCell>
        <mxCell id="iX3Dwy6AKFpw80MfnItk-129" value="CODE" style="whiteSpace=wrap;html=1;aspect=fixed;sketch=1;hachureGap=4;jiggle=2;curveFitting=1;fontFamily=Verdana;" parent="1" vertex="1">
          <mxGeometry x="292" y="5462" width="190" height="190" as="geometry" />
        </mxCell>
        <mxCell id="iX3Dwy6AKFpw80MfnItk-134" style="edgeStyle=none;curved=1;rounded=0;sketch=1;hachureGap=4;jiggle=2;curveFitting=1;orthogonalLoop=1;jettySize=auto;html=1;exitX=1;exitY=0.5;exitDx=0;exitDy=0;entryX=0;entryY=0.5;entryDx=0;entryDy=0;fontFamily=Architects Daughter;fontSource=https%3A%2F%2Ffonts.googleapis.com%2Fcss%3Ffamily%3DArchitects%2BDaughter;fontSize=16;startSize=14;endArrow=open;endSize=14;sourcePerimeterSpacing=8;targetPerimeterSpacing=8;" parent="1" source="iX3Dwy6AKFpw80MfnItk-130" target="iX3Dwy6AKFpw80MfnItk-133" edge="1">
          <mxGeometry relative="1" as="geometry" />
        </mxCell>
        <mxCell id="iX3Dwy6AKFpw80MfnItk-130" value="CODE" style="whiteSpace=wrap;html=1;aspect=fixed;sketch=1;hachureGap=4;jiggle=2;curveFitting=1;fontFamily=Verdana;" parent="1" vertex="1">
          <mxGeometry x="-190.5" y="5456" width="190" height="190" as="geometry" />
        </mxCell>
        <mxCell id="iX3Dwy6AKFpw80MfnItk-137" style="edgeStyle=none;curved=1;rounded=0;sketch=1;hachureGap=4;jiggle=2;curveFitting=1;orthogonalLoop=1;jettySize=auto;html=1;exitX=1;exitY=0.5;exitDx=0;exitDy=0;entryX=0;entryY=0.5;entryDx=0;entryDy=0;fontFamily=Architects Daughter;fontSource=https%3A%2F%2Ffonts.googleapis.com%2Fcss%3Ffamily%3DArchitects%2BDaughter;fontSize=16;startSize=14;endArrow=open;endSize=14;sourcePerimeterSpacing=8;targetPerimeterSpacing=8;" parent="1" source="iX3Dwy6AKFpw80MfnItk-133" target="iX3Dwy6AKFpw80MfnItk-129" edge="1">
          <mxGeometry relative="1" as="geometry" />
        </mxCell>
        <mxCell id="iX3Dwy6AKFpw80MfnItk-138" style="edgeStyle=none;curved=1;rounded=0;sketch=1;hachureGap=4;jiggle=2;curveFitting=1;orthogonalLoop=1;jettySize=auto;html=1;exitX=1;exitY=0.5;exitDx=0;exitDy=0;entryX=0;entryY=0.5;entryDx=0;entryDy=0;fontFamily=Architects Daughter;fontSource=https%3A%2F%2Ffonts.googleapis.com%2Fcss%3Ffamily%3DArchitects%2BDaughter;fontSize=16;startSize=14;endArrow=open;endSize=14;sourcePerimeterSpacing=8;targetPerimeterSpacing=8;" parent="1" source="iX3Dwy6AKFpw80MfnItk-133" target="iX3Dwy6AKFpw80MfnItk-135" edge="1">
          <mxGeometry relative="1" as="geometry" />
        </mxCell>
        <mxCell id="iX3Dwy6AKFpw80MfnItk-139" style="edgeStyle=none;curved=1;rounded=0;sketch=1;hachureGap=4;jiggle=2;curveFitting=1;orthogonalLoop=1;jettySize=auto;html=1;exitX=1;exitY=0.5;exitDx=0;exitDy=0;entryX=0;entryY=0.5;entryDx=0;entryDy=0;fontFamily=Architects Daughter;fontSource=https%3A%2F%2Ffonts.googleapis.com%2Fcss%3Ffamily%3DArchitects%2BDaughter;fontSize=16;startSize=14;endArrow=open;endSize=14;sourcePerimeterSpacing=8;targetPerimeterSpacing=8;" parent="1" source="iX3Dwy6AKFpw80MfnItk-133" target="iX3Dwy6AKFpw80MfnItk-136" edge="1">
          <mxGeometry relative="1" as="geometry" />
        </mxCell>
        <mxCell id="iX3Dwy6AKFpw80MfnItk-133" value="INTERFACE" style="rounded=0;whiteSpace=wrap;html=1;sketch=1;hachureGap=4;jiggle=2;curveFitting=1;fontFamily=Verdana;horizontal=0;" parent="1" vertex="1">
          <mxGeometry x="111" y="5462" width="70" height="178" as="geometry" />
        </mxCell>
        <mxCell id="iX3Dwy6AKFpw80MfnItk-135" value="CODE" style="whiteSpace=wrap;html=1;aspect=fixed;sketch=1;hachureGap=4;jiggle=2;curveFitting=1;fontFamily=Verdana;" parent="1" vertex="1">
          <mxGeometry x="297" y="5700" width="190" height="190" as="geometry" />
        </mxCell>
        <mxCell id="iX3Dwy6AKFpw80MfnItk-136" value="CODE" style="whiteSpace=wrap;html=1;aspect=fixed;sketch=1;hachureGap=4;jiggle=2;curveFitting=1;fontFamily=Verdana;" parent="1" vertex="1">
          <mxGeometry x="304" y="5938" width="190" height="190" as="geometry" />
        </mxCell>
        <mxCell id="iX3Dwy6AKFpw80MfnItk-142" value="" style="edgeStyle=none;curved=1;rounded=0;sketch=1;hachureGap=4;jiggle=2;curveFitting=1;orthogonalLoop=1;jettySize=auto;html=1;fontFamily=Architects Daughter;fontSource=https%3A%2F%2Ffonts.googleapis.com%2Fcss%3Ffamily%3DArchitects%2BDaughter;fontSize=16;startSize=14;endArrow=open;endSize=14;sourcePerimeterSpacing=8;targetPerimeterSpacing=8;" parent="1" source="iX3Dwy6AKFpw80MfnItk-140" target="iX3Dwy6AKFpw80MfnItk-141" edge="1">
          <mxGeometry relative="1" as="geometry" />
        </mxCell>
        <mxCell id="iX3Dwy6AKFpw80MfnItk-144" value="" style="edgeStyle=none;curved=1;rounded=0;sketch=1;hachureGap=4;jiggle=2;curveFitting=1;orthogonalLoop=1;jettySize=auto;html=1;fontFamily=Architects Daughter;fontSource=https%3A%2F%2Ffonts.googleapis.com%2Fcss%3Ffamily%3DArchitects%2BDaughter;fontSize=16;startSize=14;endArrow=open;endSize=14;sourcePerimeterSpacing=8;targetPerimeterSpacing=8;" parent="1" source="iX3Dwy6AKFpw80MfnItk-140" target="iX3Dwy6AKFpw80MfnItk-143" edge="1">
          <mxGeometry relative="1" as="geometry" />
        </mxCell>
        <mxCell id="iX3Dwy6AKFpw80MfnItk-145" value="" style="edgeStyle=none;curved=1;rounded=0;sketch=1;hachureGap=4;jiggle=2;curveFitting=1;orthogonalLoop=1;jettySize=auto;html=1;fontFamily=Architects Daughter;fontSource=https%3A%2F%2Ffonts.googleapis.com%2Fcss%3Ffamily%3DArchitects%2BDaughter;fontSize=16;startSize=14;endArrow=open;endSize=14;sourcePerimeterSpacing=8;targetPerimeterSpacing=8;" parent="1" source="iX3Dwy6AKFpw80MfnItk-140" target="iX3Dwy6AKFpw80MfnItk-143" edge="1">
          <mxGeometry relative="1" as="geometry" />
        </mxCell>
        <mxCell id="iX3Dwy6AKFpw80MfnItk-146" value="" style="edgeStyle=none;curved=1;rounded=0;sketch=1;hachureGap=4;jiggle=2;curveFitting=1;orthogonalLoop=1;jettySize=auto;html=1;fontFamily=Architects Daughter;fontSource=https%3A%2F%2Ffonts.googleapis.com%2Fcss%3Ffamily%3DArchitects%2BDaughter;fontSize=16;startSize=14;endArrow=open;endSize=14;sourcePerimeterSpacing=8;targetPerimeterSpacing=8;" parent="1" source="iX3Dwy6AKFpw80MfnItk-140" target="iX3Dwy6AKFpw80MfnItk-143" edge="1">
          <mxGeometry relative="1" as="geometry" />
        </mxCell>
        <mxCell id="iX3Dwy6AKFpw80MfnItk-147" value="" style="edgeStyle=none;curved=1;rounded=0;sketch=1;hachureGap=4;jiggle=2;curveFitting=1;orthogonalLoop=1;jettySize=auto;html=1;fontFamily=Architects Daughter;fontSource=https%3A%2F%2Ffonts.googleapis.com%2Fcss%3Ffamily%3DArchitects%2BDaughter;fontSize=16;startSize=14;endArrow=open;endSize=14;sourcePerimeterSpacing=8;targetPerimeterSpacing=8;" parent="1" source="iX3Dwy6AKFpw80MfnItk-140" target="iX3Dwy6AKFpw80MfnItk-143" edge="1">
          <mxGeometry relative="1" as="geometry" />
        </mxCell>
        <mxCell id="iX3Dwy6AKFpw80MfnItk-149" value="" style="edgeStyle=none;curved=1;rounded=0;sketch=1;hachureGap=4;jiggle=2;curveFitting=1;orthogonalLoop=1;jettySize=auto;html=1;fontFamily=Architects Daughter;fontSource=https%3A%2F%2Ffonts.googleapis.com%2Fcss%3Ffamily%3DArchitects%2BDaughter;fontSize=16;startSize=14;endArrow=open;endSize=14;sourcePerimeterSpacing=8;targetPerimeterSpacing=8;" parent="1" source="iX3Dwy6AKFpw80MfnItk-140" target="iX3Dwy6AKFpw80MfnItk-148" edge="1">
          <mxGeometry relative="1" as="geometry" />
        </mxCell>
        <mxCell id="iX3Dwy6AKFpw80MfnItk-140" value="FLOW" style="rounded=0;whiteSpace=wrap;html=1;sketch=1;hachureGap=4;jiggle=2;curveFitting=1;fontFamily=Verdana;" parent="1" vertex="1">
          <mxGeometry x="408" y="6558" width="120" height="60" as="geometry" />
        </mxCell>
        <mxCell id="iX3Dwy6AKFpw80MfnItk-141" value="SUCCESS" style="rounded=0;whiteSpace=wrap;html=1;sketch=1;hachureGap=4;jiggle=2;curveFitting=1;fontFamily=Verdana;" parent="1" vertex="1">
          <mxGeometry x="288" y="6716" width="120" height="60" as="geometry" />
        </mxCell>
        <mxCell id="iX3Dwy6AKFpw80MfnItk-143" value="FAILURE" style="rounded=0;whiteSpace=wrap;html=1;sketch=1;hachureGap=4;jiggle=2;curveFitting=1;fontFamily=Verdana;" parent="1" vertex="1">
          <mxGeometry x="482" y="6716" width="120" height="60" as="geometry" />
        </mxCell>
        <mxCell id="iX3Dwy6AKFpw80MfnItk-148" value="UNEXPECTED" style="rounded=0;whiteSpace=wrap;html=1;sketch=1;hachureGap=4;jiggle=2;curveFitting=1;fontFamily=Verdana;" parent="1" vertex="1">
          <mxGeometry x="690" y="6716" width="120" height="60" as="geometry" />
        </mxCell>
        <mxCell id="J9DhejEsRP8kxP1LZ3wM-1" style="edgeStyle=none;curved=1;rounded=0;sketch=1;hachureGap=4;jiggle=2;curveFitting=1;orthogonalLoop=1;jettySize=auto;html=1;exitX=1;exitY=0.5;exitDx=0;exitDy=0;entryX=-0.024;entryY=0.083;entryDx=0;entryDy=0;entryPerimeter=0;fontFamily=Architects Daughter;fontSource=https%3A%2F%2Ffonts.googleapis.com%2Fcss%3Ffamily%3DArchitects%2BDaughter;fontSize=16;startSize=14;endArrow=open;endSize=14;sourcePerimeterSpacing=8;targetPerimeterSpacing=8;" edge="1" parent="1" source="iX3Dwy6AKFpw80MfnItk-13" target="iX3Dwy6AKFpw80MfnItk-8">
          <mxGeometry relative="1" as="geometry" />
        </mxCell>
        <mxCell id="J9DhejEsRP8kxP1LZ3wM-4" value="yay" style="rounded=0;whiteSpace=wrap;html=1;sketch=1;hachureGap=4;jiggle=2;curveFitting=1;fontFamily=Verdana;verticalAlign=top;" vertex="1" parent="1">
          <mxGeometry x="484" y="2274" width="37" height="27" as="geometry" />
        </mxCell>
        <mxCell id="J9DhejEsRP8kxP1LZ3wM-5" value="test" style="rounded=0;whiteSpace=wrap;html=1;sketch=1;hachureGap=4;jiggle=2;curveFitting=1;fontFamily=Verdana;verticalAlign=top;" vertex="1" parent="1">
          <mxGeometry x="488" y="2351" width="37" height="27" as="geometry" />
        </mxCell>
        <mxCell id="J9DhejEsRP8kxP1LZ3wM-7" value="100" style="rounded=0;whiteSpace=wrap;html=1;sketch=1;hachureGap=4;jiggle=2;curveFitting=1;fontFamily=Verdana;verticalAlign=top;" vertex="1" parent="1">
          <mxGeometry x="476" y="2434" width="37" height="27" as="geometry" />
        </mxCell>
        <mxCell id="J9DhejEsRP8kxP1LZ3wM-11" value="HEAP" style="rounded=0;whiteSpace=wrap;html=1;sketch=1;hachureGap=4;jiggle=2;curveFitting=1;fontFamily=Verdana;verticalAlign=top;" vertex="1" parent="1">
          <mxGeometry x="664" y="3424" width="710" height="254" as="geometry" />
        </mxCell>
        <mxCell id="J9DhejEsRP8kxP1LZ3wM-12" value="1" style="rounded=0;whiteSpace=wrap;html=1;sketch=1;hachureGap=4;jiggle=2;curveFitting=1;fontFamily=Verdana;verticalAlign=top;" vertex="1" parent="1">
          <mxGeometry x="675" y="3445" width="146" height="89" as="geometry" />
        </mxCell>
        <mxCell id="J9DhejEsRP8kxP1LZ3wM-21" value="2" style="rounded=0;whiteSpace=wrap;html=1;sketch=1;hachureGap=4;jiggle=2;curveFitting=1;fontFamily=Verdana;verticalAlign=top;" vertex="1" parent="1">
          <mxGeometry x="842" y="3448" width="146" height="89" as="geometry" />
        </mxCell>
        <mxCell id="J9DhejEsRP8kxP1LZ3wM-22" value="3" style="rounded=0;whiteSpace=wrap;html=1;sketch=1;hachureGap=4;jiggle=2;curveFitting=1;fontFamily=Verdana;verticalAlign=top;" vertex="1" parent="1">
          <mxGeometry x="1005" y="3448" width="146" height="89" as="geometry" />
        </mxCell>
        <mxCell id="J9DhejEsRP8kxP1LZ3wM-23" value="4" style="rounded=0;whiteSpace=wrap;html=1;sketch=1;hachureGap=4;jiggle=2;curveFitting=1;fontFamily=Verdana;verticalAlign=top;" vertex="1" parent="1">
          <mxGeometry x="1170" y="3445" width="146" height="89" as="geometry" />
        </mxCell>
        <mxCell id="J9DhejEsRP8kxP1LZ3wM-24" value="5" style="rounded=0;whiteSpace=wrap;html=1;sketch=1;hachureGap=4;jiggle=2;curveFitting=1;fontFamily=Verdana;verticalAlign=top;" vertex="1" parent="1">
          <mxGeometry x="677" y="3561" width="146" height="89" as="geometry" />
        </mxCell>
        <mxCell id="J9DhejEsRP8kxP1LZ3wM-25" value="6" style="rounded=0;whiteSpace=wrap;html=1;sketch=1;hachureGap=4;jiggle=2;curveFitting=1;fontFamily=Verdana;verticalAlign=top;" vertex="1" parent="1">
          <mxGeometry x="842" y="3561" width="146" height="89" as="geometry" />
        </mxCell>
        <mxCell id="J9DhejEsRP8kxP1LZ3wM-26" value="7" style="rounded=0;whiteSpace=wrap;html=1;sketch=1;hachureGap=4;jiggle=2;curveFitting=1;fontFamily=Verdana;verticalAlign=top;" vertex="1" parent="1">
          <mxGeometry x="1012" y="3561" width="146" height="89" as="geometry" />
        </mxCell>
        <mxCell id="J9DhejEsRP8kxP1LZ3wM-27" value="8" style="rounded=0;whiteSpace=wrap;html=1;sketch=1;hachureGap=4;jiggle=2;curveFitting=1;fontFamily=Verdana;verticalAlign=top;" vertex="1" parent="1">
          <mxGeometry x="1176" y="3561" width="146" height="89" as="geometry" />
        </mxCell>
        <mxCell id="J9DhejEsRP8kxP1LZ3wM-28" value="1" style="rounded=0;whiteSpace=wrap;html=1;sketch=1;hachureGap=4;jiggle=2;curveFitting=1;fontFamily=Verdana;verticalAlign=top;fillColor=#60a917;fontColor=#ffffff;strokeColor=#2D7600;" vertex="1" parent="1">
          <mxGeometry x="690" y="3584" width="37" height="27" as="geometry" />
        </mxCell>
        <mxCell id="J9DhejEsRP8kxP1LZ3wM-29" value="2&lt;span style=&quot;color: rgba(0, 0, 0, 0); font-family: monospace; font-size: 0px; text-align: start; text-wrap: nowrap;&quot;&gt;%3CmxGraphModel%3E%3Croot%3E%3CmxCell%20id%3D%220%22%2F%3E%3CmxCell%20id%3D%221%22%20parent%3D%220%22%2F%3E%3CmxCell%20id%3D%222%22%20value%3D%221%22%20style%3D%22rounded%3D0%3BwhiteSpace%3Dwrap%3Bhtml%3D1%3Bsketch%3D1%3BhachureGap%3D4%3Bjiggle%3D2%3BcurveFitting%3D1%3BfontFamily%3DVerdana%3BverticalAlign%3Dtop%3B%22%20vertex%3D%221%22%20parent%3D%221%22%3E%3CmxGeometry%20x%3D%22-136%22%20y%3D%223468%22%20width%3D%2237%22%20height%3D%2227%22%20as%3D%22geometry%22%2F%3E%3C%2FmxCell%3E%3C%2Froot%3E%3C%2FmxGraphModel%3E&lt;/span&gt;" style="rounded=0;whiteSpace=wrap;html=1;sketch=1;hachureGap=4;jiggle=2;curveFitting=1;fontFamily=Verdana;verticalAlign=top;fillColor=#60a917;fontColor=#ffffff;strokeColor=#2D7600;" vertex="1" parent="1">
          <mxGeometry x="735" y="3584" width="37" height="27" as="geometry" />
        </mxCell>
        <mxCell id="J9DhejEsRP8kxP1LZ3wM-42" value="Statics" style="rounded=0;whiteSpace=wrap;html=1;sketch=1;hachureGap=4;jiggle=2;curveFitting=1;fontFamily=Verdana;verticalAlign=top;" vertex="1" parent="1">
          <mxGeometry x="144" y="2912" width="167" height="94" as="geometry" />
        </mxCell>
        <mxCell id="J9DhejEsRP8kxP1LZ3wM-43" value="str" style="rounded=0;whiteSpace=wrap;html=1;sketch=1;hachureGap=4;jiggle=2;curveFitting=1;fontFamily=Verdana;verticalAlign=top;" vertex="1" parent="1">
          <mxGeometry x="153" y="2950" width="97" height="29" as="geometry" />
        </mxCell>
        <mxCell id="J9DhejEsRP8kxP1LZ3wM-46" value="" style="edgeStyle=none;curved=1;rounded=0;sketch=1;hachureGap=4;jiggle=2;curveFitting=1;orthogonalLoop=1;jettySize=auto;html=1;fontFamily=Architects Daughter;fontSource=https%3A%2F%2Ffonts.googleapis.com%2Fcss%3Ffamily%3DArchitects%2BDaughter;fontSize=16;startSize=14;endArrow=open;endSize=14;sourcePerimeterSpacing=8;targetPerimeterSpacing=8;" edge="1" parent="1" source="J9DhejEsRP8kxP1LZ3wM-44" target="J9DhejEsRP8kxP1LZ3wM-45">
          <mxGeometry relative="1" as="geometry" />
        </mxCell>
        <mxCell id="J9DhejEsRP8kxP1LZ3wM-44" value="JAVA CODE" style="rounded=0;whiteSpace=wrap;html=1;sketch=1;hachureGap=4;jiggle=2;curveFitting=1;fontFamily=Verdana;verticalAlign=top;" vertex="1" parent="1">
          <mxGeometry x="-134.5" y="4050" width="127.5" height="89" as="geometry" />
        </mxCell>
        <mxCell id="J9DhejEsRP8kxP1LZ3wM-48" value="" style="edgeStyle=none;curved=1;rounded=0;sketch=1;hachureGap=4;jiggle=2;curveFitting=1;orthogonalLoop=1;jettySize=auto;html=1;fontFamily=Architects Daughter;fontSource=https%3A%2F%2Ffonts.googleapis.com%2Fcss%3Ffamily%3DArchitects%2BDaughter;fontSize=16;startSize=14;endArrow=open;endSize=14;sourcePerimeterSpacing=8;targetPerimeterSpacing=8;" edge="1" parent="1" source="J9DhejEsRP8kxP1LZ3wM-45" target="J9DhejEsRP8kxP1LZ3wM-47">
          <mxGeometry relative="1" as="geometry" />
        </mxCell>
        <mxCell id="J9DhejEsRP8kxP1LZ3wM-45" value="JAVA BYTE&lt;div&gt;CLASS&lt;/div&gt;" style="rounded=0;whiteSpace=wrap;html=1;sketch=1;hachureGap=4;jiggle=2;curveFitting=1;fontFamily=Verdana;verticalAlign=top;" vertex="1" parent="1">
          <mxGeometry x="113" y="4050" width="127.5" height="89" as="geometry" />
        </mxCell>
        <mxCell id="J9DhejEsRP8kxP1LZ3wM-47" value="PACKAGE&lt;div&gt;JAR&lt;/div&gt;" style="rounded=0;whiteSpace=wrap;html=1;sketch=1;hachureGap=4;jiggle=2;curveFitting=1;fontFamily=Verdana;verticalAlign=top;" vertex="1" parent="1">
          <mxGeometry x="360.5" y="4050" width="127.5" height="89" as="geometry" />
        </mxCell>
        <mxCell id="J9DhejEsRP8kxP1LZ3wM-50" value="RUNTIME" style="rounded=0;whiteSpace=wrap;html=1;sketch=1;hachureGap=4;jiggle=2;curveFitting=1;fontFamily=Verdana;verticalAlign=top;" vertex="1" parent="1">
          <mxGeometry x="560" y="3976" width="725.75" height="183" as="geometry" />
        </mxCell>
        <mxCell id="J9DhejEsRP8kxP1LZ3wM-51" value="JVM" style="rounded=0;whiteSpace=wrap;html=1;sketch=1;hachureGap=4;jiggle=2;curveFitting=1;fontFamily=Verdana;verticalAlign=top;" vertex="1" parent="1">
          <mxGeometry x="582" y="4000" width="681.75" height="144" as="geometry" />
        </mxCell>
        <mxCell id="J9DhejEsRP8kxP1LZ3wM-54" value="CLASS LOAD" style="edgeStyle=none;curved=1;rounded=0;sketch=1;hachureGap=4;jiggle=2;curveFitting=1;orthogonalLoop=1;jettySize=auto;html=1;fontFamily=Verdana;fontSize=16;startSize=14;endArrow=open;endSize=14;sourcePerimeterSpacing=8;targetPerimeterSpacing=8;" edge="1" parent="1" source="J9DhejEsRP8kxP1LZ3wM-52" target="J9DhejEsRP8kxP1LZ3wM-53">
          <mxGeometry relative="1" as="geometry">
            <Array as="points">
              <mxPoint x="778" y="4076" />
            </Array>
          </mxGeometry>
        </mxCell>
        <mxCell id="J9DhejEsRP8kxP1LZ3wM-52" value="PACKAGE&lt;div&gt;JAR&lt;/div&gt;&lt;div&gt;&lt;br&gt;&lt;/div&gt;&lt;div&gt;CLASS&lt;/div&gt;" style="rounded=0;whiteSpace=wrap;html=1;sketch=1;hachureGap=4;jiggle=2;curveFitting=1;fontFamily=Verdana;verticalAlign=top;" vertex="1" parent="1">
          <mxGeometry x="591.5" y="4031" width="127.5" height="89" as="geometry" />
        </mxCell>
        <mxCell id="J9DhejEsRP8kxP1LZ3wM-56" value="" style="edgeStyle=none;curved=1;rounded=0;sketch=1;hachureGap=4;jiggle=2;curveFitting=1;orthogonalLoop=1;jettySize=auto;html=1;fontFamily=Architects Daughter;fontSource=https%3A%2F%2Ffonts.googleapis.com%2Fcss%3Ffamily%3DArchitects%2BDaughter;fontSize=16;startSize=14;endArrow=open;endSize=14;sourcePerimeterSpacing=8;targetPerimeterSpacing=8;" edge="1" parent="1" source="J9DhejEsRP8kxP1LZ3wM-53" target="J9DhejEsRP8kxP1LZ3wM-55">
          <mxGeometry relative="1" as="geometry" />
        </mxCell>
        <mxCell id="J9DhejEsRP8kxP1LZ3wM-53" value="MEMORY&lt;div&gt;&lt;br&gt;&lt;/div&gt;&lt;div&gt;CLASS OBJECT&lt;/div&gt;" style="rounded=0;whiteSpace=wrap;html=1;sketch=1;hachureGap=4;jiggle=2;curveFitting=1;fontFamily=Verdana;verticalAlign=top;" vertex="1" parent="1">
          <mxGeometry x="867" y="4027.5" width="130" height="89" as="geometry" />
        </mxCell>
        <mxCell id="J9DhejEsRP8kxP1LZ3wM-55" value="STATIC VARS" style="rounded=0;whiteSpace=wrap;html=1;sketch=1;hachureGap=4;jiggle=2;curveFitting=1;fontFamily=Verdana;verticalAlign=top;" vertex="1" parent="1">
          <mxGeometry x="1117" y="4027.5" width="130" height="89" as="geometry" />
        </mxCell>
        <mxCell id="J9DhejEsRP8kxP1LZ3wM-57" value="String - myStaticStr" style="rounded=0;whiteSpace=wrap;html=1;sketch=1;hachureGap=4;jiggle=2;curveFitting=1;fontFamily=Verdana;verticalAlign=top;" vertex="1" parent="1">
          <mxGeometry x="586.5" y="3009" width="167" height="93" as="geometry" />
        </mxCell>
        <mxCell id="J9DhejEsRP8kxP1LZ3wM-58" value="byte[]" style="rounded=0;whiteSpace=wrap;html=1;sketch=1;hachureGap=4;jiggle=2;curveFitting=1;fontFamily=Verdana;verticalAlign=top;" vertex="1" parent="1">
          <mxGeometry x="603.5" y="3050" width="97" height="27" as="geometry" />
        </mxCell>
        <mxCell id="J9DhejEsRP8kxP1LZ3wM-59" value="osman" style="rounded=0;whiteSpace=wrap;html=1;sketch=1;hachureGap=4;jiggle=2;curveFitting=1;fontFamily=Verdana;verticalAlign=top;" vertex="1" parent="1">
          <mxGeometry x="686.5" y="3050" width="39" height="27" as="geometry" />
        </mxCell>
        <mxCell id="J9DhejEsRP8kxP1LZ3wM-63" value="Statics" style="rounded=0;whiteSpace=wrap;html=1;sketch=1;hachureGap=4;jiggle=2;curveFitting=1;fontFamily=Verdana;verticalAlign=top;" vertex="1" parent="1">
          <mxGeometry x="148" y="3016.5" width="167" height="94" as="geometry" />
        </mxCell>
        <mxCell id="J9DhejEsRP8kxP1LZ3wM-64" value="str" style="rounded=0;whiteSpace=wrap;html=1;sketch=1;hachureGap=4;jiggle=2;curveFitting=1;fontFamily=Verdana;verticalAlign=top;" vertex="1" parent="1">
          <mxGeometry x="157" y="3054.5" width="97" height="29" as="geometry" />
        </mxCell>
        <mxCell id="J9DhejEsRP8kxP1LZ3wM-65" value="Statics" style="rounded=0;whiteSpace=wrap;html=1;sketch=1;hachureGap=4;jiggle=2;curveFitting=1;fontFamily=Verdana;verticalAlign=top;" vertex="1" parent="1">
          <mxGeometry x="327" y="2912" width="167" height="94" as="geometry" />
        </mxCell>
        <mxCell id="J9DhejEsRP8kxP1LZ3wM-66" value="str" style="rounded=0;whiteSpace=wrap;html=1;sketch=1;hachureGap=4;jiggle=2;curveFitting=1;fontFamily=Verdana;verticalAlign=top;" vertex="1" parent="1">
          <mxGeometry x="336" y="2950" width="97" height="29" as="geometry" />
        </mxCell>
        <mxCell id="J9DhejEsRP8kxP1LZ3wM-67" value="Statics" style="rounded=0;whiteSpace=wrap;html=1;sketch=1;hachureGap=4;jiggle=2;curveFitting=1;fontFamily=Verdana;verticalAlign=top;" vertex="1" parent="1">
          <mxGeometry x="327" y="3014" width="167" height="94" as="geometry" />
        </mxCell>
        <mxCell id="J9DhejEsRP8kxP1LZ3wM-68" value="str" style="rounded=0;whiteSpace=wrap;html=1;sketch=1;hachureGap=4;jiggle=2;curveFitting=1;fontFamily=Verdana;verticalAlign=top;" vertex="1" parent="1">
          <mxGeometry x="336" y="3052" width="97" height="29" as="geometry" />
        </mxCell>
        <mxCell id="J9DhejEsRP8kxP1LZ3wM-69" value="int[]" style="rounded=0;whiteSpace=wrap;html=1;sketch=1;hachureGap=4;jiggle=2;curveFitting=1;fontFamily=Verdana;verticalAlign=top;" vertex="1" parent="1">
          <mxGeometry x="668" y="2229" width="213" height="72" as="geometry" />
        </mxCell>
        <mxCell id="J9DhejEsRP8kxP1LZ3wM-70" value="int" style="rounded=0;whiteSpace=wrap;html=1;sketch=1;hachureGap=4;jiggle=2;curveFitting=1;fontFamily=Verdana;verticalAlign=top;" vertex="1" parent="1">
          <mxGeometry x="675" y="2265" width="41" height="27" as="geometry" />
        </mxCell>
        <mxCell id="J9DhejEsRP8kxP1LZ3wM-71" value="int" style="rounded=0;whiteSpace=wrap;html=1;sketch=1;hachureGap=4;jiggle=2;curveFitting=1;fontFamily=Verdana;verticalAlign=top;" vertex="1" parent="1">
          <mxGeometry x="716" y="2265" width="41" height="27" as="geometry" />
        </mxCell>
        <mxCell id="J9DhejEsRP8kxP1LZ3wM-72" value="int" style="rounded=0;whiteSpace=wrap;html=1;sketch=1;hachureGap=4;jiggle=2;curveFitting=1;fontFamily=Verdana;verticalAlign=top;" vertex="1" parent="1">
          <mxGeometry x="757" y="2265" width="41" height="27" as="geometry" />
        </mxCell>
        <mxCell id="J9DhejEsRP8kxP1LZ3wM-73" value="Car[]" style="rounded=0;whiteSpace=wrap;html=1;sketch=1;hachureGap=4;jiggle=2;curveFitting=1;fontFamily=Verdana;verticalAlign=top;" vertex="1" parent="1">
          <mxGeometry x="664" y="2328.5" width="213" height="72" as="geometry" />
        </mxCell>
        <mxCell id="J9DhejEsRP8kxP1LZ3wM-78" style="edgeStyle=none;curved=1;rounded=0;sketch=1;hachureGap=4;jiggle=2;curveFitting=1;orthogonalLoop=1;jettySize=auto;html=1;exitX=0.5;exitY=1;exitDx=0;exitDy=0;entryX=0.5;entryY=0;entryDx=0;entryDy=0;fontFamily=Architects Daughter;fontSource=https%3A%2F%2Ffonts.googleapis.com%2Fcss%3Ffamily%3DArchitects%2BDaughter;fontSize=16;startSize=14;endArrow=open;endSize=14;sourcePerimeterSpacing=8;targetPerimeterSpacing=8;" edge="1" parent="1" source="J9DhejEsRP8kxP1LZ3wM-74" target="J9DhejEsRP8kxP1LZ3wM-77">
          <mxGeometry relative="1" as="geometry" />
        </mxCell>
        <mxCell id="J9DhejEsRP8kxP1LZ3wM-74" value="ref" style="rounded=0;whiteSpace=wrap;html=1;sketch=1;hachureGap=4;jiggle=2;curveFitting=1;fontFamily=Verdana;verticalAlign=top;" vertex="1" parent="1">
          <mxGeometry x="671" y="2364.5" width="41" height="27" as="geometry" />
        </mxCell>
        <mxCell id="J9DhejEsRP8kxP1LZ3wM-80" style="edgeStyle=none;curved=1;rounded=0;sketch=1;hachureGap=4;jiggle=2;curveFitting=1;orthogonalLoop=1;jettySize=auto;html=1;exitX=0.5;exitY=1;exitDx=0;exitDy=0;entryX=0.5;entryY=0;entryDx=0;entryDy=0;fontFamily=Architects Daughter;fontSource=https%3A%2F%2Ffonts.googleapis.com%2Fcss%3Ffamily%3DArchitects%2BDaughter;fontSize=16;startSize=14;endArrow=open;endSize=14;sourcePerimeterSpacing=8;targetPerimeterSpacing=8;" edge="1" parent="1" source="J9DhejEsRP8kxP1LZ3wM-75" target="J9DhejEsRP8kxP1LZ3wM-79">
          <mxGeometry relative="1" as="geometry" />
        </mxCell>
        <mxCell id="J9DhejEsRP8kxP1LZ3wM-75" value="ref" style="rounded=0;whiteSpace=wrap;html=1;sketch=1;hachureGap=4;jiggle=2;curveFitting=1;fontFamily=Verdana;verticalAlign=top;" vertex="1" parent="1">
          <mxGeometry x="712" y="2364.5" width="41" height="27" as="geometry" />
        </mxCell>
        <mxCell id="J9DhejEsRP8kxP1LZ3wM-76" value="null" style="rounded=0;whiteSpace=wrap;html=1;sketch=1;hachureGap=4;jiggle=2;curveFitting=1;fontFamily=Verdana;verticalAlign=top;" vertex="1" parent="1">
          <mxGeometry x="753" y="2364.5" width="41" height="27" as="geometry" />
        </mxCell>
        <mxCell id="J9DhejEsRP8kxP1LZ3wM-77" value="Car" style="rounded=0;whiteSpace=wrap;html=1;sketch=1;hachureGap=4;jiggle=2;curveFitting=1;fontFamily=Verdana;verticalAlign=top;" vertex="1" parent="1">
          <mxGeometry x="628" y="2475" width="104" height="27" as="geometry" />
        </mxCell>
        <mxCell id="J9DhejEsRP8kxP1LZ3wM-79" value="Car" style="rounded=0;whiteSpace=wrap;html=1;sketch=1;hachureGap=4;jiggle=2;curveFitting=1;fontFamily=Verdana;verticalAlign=top;" vertex="1" parent="1">
          <mxGeometry x="757" y="2475" width="104" height="27" as="geometry" />
        </mxCell>
      </root>
    </mxGraphModel>
  </diagram>
</mxfile>
